<?xml version="1.0" encoding="UTF-8" standalone="no"?>
<!-- Created with Inkscape (http://www.inkscape.org/) -->

<svg
   xmlns:dc="http://purl.org/dc/elements/1.1/"
   xmlns:cc="http://creativecommons.org/ns#"
   xmlns:rdf="http://www.w3.org/1999/02/22-rdf-syntax-ns#"
   xmlns:svg="http://www.w3.org/2000/svg"
   xmlns="http://www.w3.org/2000/svg"
   xmlns:sodipodi="http://sodipodi.sourceforge.net/DTD/sodipodi-0.dtd"
   xmlns:inkscape="http://www.inkscape.org/namespaces/inkscape"
   width="1080"
   height="1080"
   id="svg2"
   version="1.1"
   inkscape:version="0.47 r22583"
   sodipodi:docname="New document 1">
  <defs
     id="defs4">
    <inkscape:perspective
       sodipodi:type="inkscape:persp3d"
       inkscape:vp_x="0 : 526.18109 : 1"
       inkscape:vp_y="0 : 1000 : 0"
       inkscape:vp_z="744.09448 : 526.18109 : 1"
       inkscape:persp3d-origin="372.04724 : 350.78739 : 1"
       id="perspective10" />
    <inkscape:perspective
       id="perspective2820"
       inkscape:persp3d-origin="0.5 : 0.33333333 : 1"
       inkscape:vp_z="1 : 0.5 : 1"
       inkscape:vp_y="0 : 1000 : 0"
       inkscape:vp_x="0 : 0.5 : 1"
       sodipodi:type="inkscape:persp3d" />
    <inkscape:perspective
       id="perspective2839"
       inkscape:persp3d-origin="0.5 : 0.33333333 : 1"
       inkscape:vp_z="1 : 0.5 : 1"
       inkscape:vp_y="0 : 1000 : 0"
       inkscape:vp_x="0 : 0.5 : 1"
       sodipodi:type="inkscape:persp3d" />
    <inkscape:perspective
       id="perspective2921"
       inkscape:persp3d-origin="0.5 : 0.33333333 : 1"
       inkscape:vp_z="1 : 0.5 : 1"
       inkscape:vp_y="0 : 1000 : 0"
       inkscape:vp_x="0 : 0.5 : 1"
       sodipodi:type="inkscape:persp3d" />
  </defs>
  <sodipodi:namedview
     id="base"
     pagecolor="#ffffff"
     bordercolor="#666666"
     borderopacity="1.0"
     inkscape:pageopacity="0.0"
     inkscape:pageshadow="2"
     inkscape:zoom="0.24748737"
     inkscape:cx="154.18302"
     inkscape:cy="562.0003"
     inkscape:document-units="px"
     inkscape:current-layer="layer1"
     showgrid="false"
     units="in"
     inkscape:window-width="1152"
     inkscape:window-height="838"
     inkscape:window-x="-4"
     inkscape:window-y="-4"
     inkscape:window-maximized="1" />
  <metadata
     id="metadata7">
    <rdf:RDF>
      <cc:Work
         rdf:about="">
        <dc:format>image/svg+xml</dc:format>
        <dc:type
           rdf:resource="http://purl.org/dc/dcmitype/StillImage" />
        <dc:title></dc:title>
      </cc:Work>
    </rdf:RDF>
  </metadata>
  <g
     inkscape:label="Layer 1"
     inkscape:groupmode="layer"
     id="layer1"
     transform="translate(0,27.638)">
    <path
       style="fill:#552200"
       d="m 331.55829,1.8857044 c -16.98933,0.098934 -18.25336,3.0570379 -15.57579,36.8878166 1.85819,23.477262 3.97529,32.530902 8.70904,37.264675 17.77168,17.771646 29.69862,-18.561753 19.4488,-59.267571 C 340.88028,3.8239307 339.22606,1.8410915 331.55829,1.8857044 z m -26.9436,12.7913996 c -0.12574,0.0013 -0.24567,0.0067 -0.37683,0.0209 -12.83847,2.80571 -28.08239,12.689838 -38.68826,25.080379 -10.6823,12.479901 -12.07459,13.131145 -17.52276,8.353148 -6.79446,-5.958714 -25.94934,-16.057294 -30.43979,-16.057294 -1.66637,0 -4.04119,13.124033 -5.27567,29.18367 -3.15174,41.003104 -15.02179,52.159844 -34.14531,32.093655 -8.59959,-9.023437 -8.75126,-9.952842 -6.61552,-40.76083 l 2.17725,-31.528418 -14.50809,2.219134 c -21.2246,3.262895 -39.66657,17.561409 -50.51665,39.148833 -9.738168,19.375133 -10.482396,27.012216 -14.194049,145.2903 -0.835746,26.63126 -2.501239,37.79192 -6.280561,41.97508 -2.831917,3.13449 -5.640525,11.74611 -6.238695,19.13478 -0.888331,10.97245 -2.474205,13.63153 -8.646242,14.5081 -8.304811,1.17947 -11.185436,-6.57042 -3.517105,-12.14244 9.901875,-7.19494 11.816657,-9.45431 -3.49619,-4.04049 -6.02249,2.12925 -7.567239,-1.32158 -4.019561,-6.51084 14.179878,-20.74121 0.623165,-14.08264 -6.636453,-5.21287 -5.791403,7.07593 -8.139201,6.34635 -9.002133,-2.55409 -1.200908,-12.38614 -6.265359,-12.23058 -3.93583,2.05166 1.398118,8.57169 -1.346882,9.38762 -9.692985,7.4948 l -9.232429,-2.09352 7.871642,6.74113 c 2.089712,3.16742 18.069881,5.26633 -0.837414,10.04889 -10.98194,4.17533 -11.378669,8.13032 -0.60712,6.07122 7.424552,-1.4193 7.842468,-0.84923 4.940707,6.783 -1.744539,4.58844 -2.397249,9.09618 -1.465468,10.02796 0.931782,0.93178 2.645527,-0.77507 3.810216,-3.8102 2.938418,-7.65743 10.727947,-7.07016 9.232412,1.73761 -6.138278,36.15085 2.512919,7.99923 6.44804,3.49619 2.94629,-3.3715 7.14496,-2.18542 15.282712,2.76344 22.329158,16.0546 63.042056,42.6612 81.165766,40.99113 1.33918,-10.13664 11.202,-5.24911 13.12637,-2.13539 40.48647,-1.36822 60.41487,-18.11894 87.78131,-30.37694 -6.42124,-7.41136 -9.01353,-48.38123 -9.12775,-60.83771 1.61901,-19.31314 13.54477,-74.23595 16.8319,-77.52304 0.0281,-0.0278 0.0543,-0.0509 0.0838,-0.0629 0.0288,-0.0118 0.0536,-0.0238 0.0838,-0.0209 0.93141,0.0893 2.55195,7.09654 3.72646,16.30852 6.88812,41.06803 15.14239,78.2134 -4.2917,118.61886 29.14374,8.93342 55.63919,14.93664 85.45749,14.36155 6.22931,-13.60457 14.03121,-2.63097 18.29736,-1.19331 48.07339,-13.00292 48.53032,-19.94986 66.59489,-36.95063 l 11.47248,-10.78163 -5.75717,-12.10055 c -23.81578,-33.40787 -15.80922,-78.47398 -15.72234,-118.34669 0.71266,-69.358991 0.30511,-75.199254 -6.13401,-87.320803 -13.40732,-25.239329 -34.59658,-41.55638 -53.99189,-41.55638 -6.32967,0 -6.82488,2.105437 -6.82488,28.785913 0,15.822347 -1.56307,31.681976 -3.47524,35.254869 -4.31004,8.05338 -23.95939,8.883683 -30.27231,1.277055 -2.45287,-2.955492 -5.17525,-18.640899 -6.28056,-36.113234 -1.33175,-3.03393 1.3085,-29.867965 -6.61552,-29.79079 z m -96.4066,2.28195 -28.01131,0.669919 c -0.29952,22.510863 -5.84113,59.002758 1.65388,70.781915 6.29625,8.989106 12.07371,9.472314 19.15572,1.591081 3.89541,-4.334935 5.53298,-14.691771 6.23868,-39.462859 l 0.96303,-33.580056 z M 149.757,38.857269 c 2.77076,-0.03253 -4.8044,8.897015 -16.81096,19.846577 -16.9042,15.415977 -20.91752,20.82019 -17.8368,23.94987 3.09165,3.140718 7.15606,1.720133 18.23456,-6.427108 7.84109,-5.766392 14.95652,-9.767969 15.82702,-8.89747 0.87056,0.870517 -6.95923,9.77552 -17.39715,19.804712 -13.24908,12.730236 -18.9673,20.80848 -18.9673,26.73424 0,11.0413 5.61043,14.26076 13.06356,7.51575 8.61881,-7.79993 10.44667,-6.71786 10.44667,6.15495 0,8.43526 -2.3709,13.36398 -8.85559,18.46484 -7.80692,6.14094 -21.37484,9.59776 -21.37484,5.44316 0,-0.83692 5.30053,-4.02915 11.76559,-7.09704 12.05551,-5.72068 16.46291,-15.39473 5.86185,-12.85422 -9.86848,2.36499 -15.62894,-4.06697 -15.26176,-17.0203 0.18831,-6.64352 2.01018,-14.10909 4.06143,-16.580685 2.79359,-3.366126 2.46473,-5.551552 -1.33986,-8.709058 -2.79352,-2.318422 -5.08725,-6.287875 -5.08725,-8.834654 0,-6.09171 37.17931,-41.4174 43.67083,-41.493564 z m 135.86946,0.795532 c 0.19132,0.01517 0.37101,0.04686 0.54432,0.104665 1.43518,1.43513 -2.96316,8.196961 -9.79769,15.031467 -6.83445,6.834522 -12.40147,10.944135 -12.35175,9.127764 1.45468,-5.076248 15.67553,-24.72162 21.60512,-24.263912 z m 110.28665,11.137537 c 0.0976,-0.01517 0.20168,-0.0084 0.31403,0 1.49808,0.104496 4.34156,2.22446 8.77184,6.468973 11.15501,10.687144 13.65706,25.185042 4.35452,25.185042 -4.4406,0 -4.80933,0.884995 -1.67481,4.019561 2.21665,2.216606 4.04049,9.829757 4.04049,16.894706 0,10.91761 -1.40356,13.3684 -9.25336,16.37134 l -9.23241,3.53804 9.23241,7.97632 c 5.07972,4.38752 9.25336,8.80643 9.25336,9.8186 0,4.22159 -9.44978,1.38025 -14.69651,-4.41732 -7.65083,-8.45402 -12.72337,-26.60151 -8.2066,-29.39303 1.9176,-1.18513 4.67981,-0.23852 6.13401,2.11445 3.71087,6.00427 13.39854,1.48189 13.39854,-6.25961 0,-3.533081 -5.32535,-10.490032 -11.82839,-15.450189 -13.07107,-9.969747 -23.8198,-24.414909 -20.57931,-27.655404 1.14799,-1.147918 5.25253,1.924979 9.10682,6.824883 4.14396,5.268216 10.33622,8.897452 15.15708,8.897452 9.91003,0 10.34741,-3.668725 1.4236,-11.744639 -3.69431,-3.343323 -6.7202,-8.412155 -6.7202,-11.242201 0,-1.187846 0.32237,-1.845613 1.00489,-1.946974 z m -62.34503,3.998611 c 3.38342,0 6.13401,3.394846 6.13401,7.599482 0,4.204653 -2.75059,7.620415 -6.13401,7.620415 -3.38344,0 -6.13402,-3.415762 -6.13402,-7.620415 0,-4.204636 2.75058,-7.599482 6.13402,-7.599482 z M 192.00423,66.282378 c 3.38344,0 6.11308,3.415778 6.11308,7.620415 0,4.204653 -2.72964,7.620414 -6.11308,7.620414 -3.38342,0 -6.13401,-3.415761 -6.13401,-7.620414 0,-4.204637 2.75059,-7.620415 6.13401,-7.620415 z m 92.97324,0.460573 c 0.6113,-0.03523 1.07691,1.091272 1.59108,3.265895 0.78576,3.323367 -0.99046,9.750727 -3.95676,14.277817 -5.39673,8.236501 -11.954,11.013793 -11.954,5.066321 0,-1.738151 1.59784,-4.147383 3.55899,-5.359415 1.96108,-1.212032 5.21959,-6.216329 7.24357,-11.116604 1.70276,-4.122607 2.73116,-6.08876 3.51712,-6.134014 z m -30.31418,13.210124 c 0.88176,-0.0691 2.87754,1.422389 6.07122,4.312655 8.4282,7.627443 8.09516,27.25326 -0.43964,25.87591 -4.4739,-0.72201 -5.05286,2.13515 -3.72647,18.12988 l 1.57013,19.00916 -12.20521,-1.98884 c -14.46807,-2.34786 -16.46488,3.46198 -4.87791,14.25687 5.37831,5.01065 6.02382,6.84582 2.36568,6.84582 -8.3657,0 -13.06356,-7.40967 -13.06356,-20.62118 0,-14.27043 5.75899,-20.02968 11.78652,-11.78652 2.23238,3.05294 5.78726,5.54783 7.89256,5.54783 5.45415,0 4.73126,-14.3016 -1.10956,-22.02383 -2.712,-3.58559 -4.9657,-9.75407 -5.02445,-13.71257 -0.059,-3.958495 -2.3793,-8.064501 -5.15005,-9.127744 -2.77076,-1.063244 -5.04539,-4.55495 -5.04539,-7.746028 0,-4.436718 2.7525,-3.127101 11.70277,5.547827 12.83023,12.435575 18.45795,11.622075 12.35178,-1.779477 -3.28499,-7.209798 -4.38715,-10.638823 -3.09842,-10.739763 z m 33.4126,32.721705 c 4.59998,0 3.03984,19.88332 -2.38662,30.377 -2.81818,5.44975 -6.59526,9.92328 -8.39501,9.92328 -4.55143,0 -3.92875,-3.89852 1.86322,-11.55623 7.37549,-9.7513 6.50917,-16.40353 -1.57015,-12.07962 -11.24779,6.01966 -11.8864,3.82367 -1.90509,-6.59458 5.30909,-5.54151 10.89206,-10.06985 12.39365,-10.06985 z m 78.31858,1.02583 c 1.20084,-0.11124 1.65388,1.85362 1.65388,6.25963 0,5.52263 6.79262,16.93799 18.82075,31.61217 17.02578,20.7709 18.66982,24.1449 17.14593,35.50609 -1.04944,7.82423 0.0308,14.84179 2.88906,18.61139 5.69471,7.50977 6.22339,35.20746 0.7746,40.65617 -3.13452,3.13458 -2.4314,4.01956 3.16121,4.01956 3.95479,0 8.13275,1.50246 9.27429,3.34964 3.50339,5.66852 -15.86942,3.63291 -31.06782,-3.2659 -11.93609,-5.41801 -14.27782,-8.03526 -14.27782,-16.03636 0,-10.43869 5.27138,-17.62744 12.93796,-17.62744 4.03155,0 3.91584,1.06685 -0.66993,6.13401 -7.17464,7.92796 -7.08223,16.19395 0.23029,20.28621 16.48259,9.22413 25.52949,-21.9725 10.67695,-36.82502 -5.12929,-5.12932 -6.05731,-8.07391 -3.37056,-10.7607 7.60359,-7.60356 3.52575,-20.04062 -13.10544,-39.94436 -17.85965,-21.37399 -23.38339,-34.39772 -17.20874,-40.57242 0.87714,-0.87711 1.5896,-1.35212 2.13539,-1.40267 z m -56.39944,13.10544 c 0.69419,-0.14393 0.80502,1.99511 0.85835,6.783 0.0563,5.04473 -4.71658,18.96176 -10.61415,30.9213 -9.76899,19.81054 -10.31094,22.51499 -6.09215,30.39791 4.01234,7.49713 3.87413,10.76454 -1.04676,24.49419 -10.21511,28.501 -6.38868,40.76687 10.38387,33.2451 10.28585,-4.61274 13.50572,-18.04967 5.69438,-23.76146 -3.81637,-2.79059 -4.67104,-5.16977 -2.36568,-6.59458 5.08319,-3.14157 14.215,6.98621 14.215,15.76421 0,4.28916 -6.12953,13.323 -14.67558,21.60512 -16.07254,15.57633 -20.41832,17.54334 -17.35528,7.89258 1.26576,-3.98815 0.12321,-7.04606 -3.11935,-8.29033 -6.51631,-2.50055 -6.64299,-18.85259 -0.29309,-39.77689 3.73309,-12.30113 3.94901,-17.98603 0.96301,-25.89686 -3.1465,-8.33611 -2.75051,-12.39223 2.21914,-22.86123 l 6.02935,-12.7286 -8.68813,8.14379 c -15.49947,14.48084 -13.85095,3.95312 1.94698,-12.41458 8.42754,-8.73147 16.98304,-18.89475 19.00918,-22.58908 1.49567,-2.72708 2.39109,-4.22157 2.93091,-4.33359 z m -155.61135,2.99374 c 1.33898,-0.0979 2.07259,1.84821 2.07259,5.9456 0,3.45463 -7.64313,16.68494 -16.99939,29.39301 -14.59134,19.81865 -16.79528,24.79861 -15.51299,35.06648 1.18785,9.51158 -0.22016,13.61464 -6.80393,19.95124 -6.54546,6.29977 -7.84631,10.11253 -6.2387,18.15083 2.72252,13.61242 7.29658,17.89689 14.36155,13.44039 10.83814,-6.8365 13.32199,-14.76914 6.25963,-20.01406 -7.17873,-5.33134 -5.13706,-10.18813 2.9728,-7.07609 3.24158,1.2439 5.17099,6.20591 5.17099,13.23105 0,11.53916 -10.09398,24.15416 -25.79216,32.21927 -11.39747,5.85559 -16.069805,4.4503 -7.70417,-2.3238 6.32612,-5.12254 6.92102,-7.26204 3.72647,-13.23105 -5.98324,-11.17981 -4.57093,-30.70606 2.91,-40.21653 4.31968,-5.49162 6.7202,-13.61388 6.7202,-22.77749 0,-8.56863 1.99504,-15.92971 5.02444,-18.44391 2.77076,-2.29953 5.04539,-5.497 5.04539,-7.11798 0,-4.92092 -6.81834,-3.32544 -17.10405,3.99863 -5.36485,3.82011 -9.7558,5.43973 -9.7558,3.60085 0,-6.07325 17.51398,-17.27155 27.02733,-17.27155 7.62217,0 10.4941,-2.45018 15.51299,-13.33572 3.93455,-8.53355 7.14983,-13.04613 9.10681,-13.18917 z m 57.76022,3.91488 c 1.06753,0.10534 0.91402,2.98015 -0.27216,9.44177 -1.99029,10.84163 -1.04314,12.97693 9.58832,21.83542 6.47954,5.39897 15.2871,12.30015 19.57442,15.34551 4.28739,3.04536 6.67063,6.69463 5.29661,8.10192 -1.37403,1.4073 -5.39737,-0.0605 -8.93933,-3.2659 -6.2793,-5.68269 -6.47715,-5.26626 -7.7251,17.08313 -0.70389,12.60649 -0.0821,24.35138 1.38172,26.1062 1.46373,1.7548 2.65878,10.21971 2.65878,18.79982 0,11.50172 -1.81319,17.24701 -6.92955,21.87728 -6.3966,5.78881 -6.51195,6.60194 -1.33985,10.38385 9.19064,6.72037 4.03449,10.40676 -6.61552,4.73136 -23.72184,-12.64129 -32.70686,-35.02459 -18.15083,-45.22003 7.07509,-4.95557 12.89608,-4.41745 12.89608,1.17238 0,1.5227 -3.15186,3.58051 -6.99235,4.5848 -8.47999,2.21758 -7.79243,14.85242 1.10956,20.43276 13.88737,8.70552 25.17276,-16.00936 15.53392,-34.01971 -3.46271,-6.47017 -3.48398,-9.34374 -0.0627,-14.82212 5.52628,-8.84902 2.20415,-24.57902 -8.56252,-40.46774 -9.03093,-13.3274 -11.30329,-34.12023 -4.45918,-40.80271 0.75648,-0.7386 1.34183,-1.18482 1.77948,-1.27706 0.0821,-0.0172 0.1591,-0.028 0.23029,-0.0209 l -3e-5,-3e-5 z m 178.91224,9.25336 c 4.62685,-0.076 11.41625,1.48296 15.42924,4.41733 3.37797,2.47003 5.51484,6.42142 4.73136,8.77184 -1.06338,3.19022 -2.57536,2.90514 -5.92467,-1.13049 -2.4676,-2.9733 -7.234,-5.42223 -10.59321,-5.42223 -3.35907,0 -7.04404,-1.50246 -8.18566,-3.34962 -1.34843,-2.18176 0.94429,-3.22774 4.54294,-3.28683 z M 52.973564,267.61623 c 5.559474,0 10.069827,4.71822 10.069827,10.5304 0,5.81219 -4.510353,10.50947 -10.069827,10.50947 -5.559473,0 -10.048894,-4.69728 -10.048894,-10.50947 0,-5.81218 4.489421,-10.5304 10.048894,-10.5304 z m 388.515476,16.32946 c -1.16815,0 -6.44573,4.25353 -11.74464,9.44177 -12.65177,12.38765 -34.19667,28.09894 -66.61731,34.4855 -1.8628,5.11823 -2.3372,13.06604 -8.67196,11.08267 3.39956,19.8333 2.11968,54.89003 4.90511,55.08829 4.74805,0.33792 2.89711,3.28588 4.6895,-7.34827 23.97901,1.5929 42.70322,4.22926 66.1343,10.97005 33.99842,5.62892 99.43417,-7.33178 136.66499,-27.06921 6.09912,-3.37756 18.82931,-7.96503 18.29737,-10.13265 0.72755,-2.77961 -4.59177,-8.15076 -6.88768,-12.22614 -6.61031,-10.47728 -9.72408,-12.37745 -21.8773,-13.27292 -13.03345,0.10955 -37.10821,2.14029 -57.68296,-2.24776 -39.72244,32.62598 -1.61948,-1.82906 -4.10447,-2.54521 -5.7063,-1.64452 -15.39014,-3.80322 -20.76142,-6.62831 -39.34714,30.0107 -0.15421,-2.34207 -2.19176,-3.67933 -8.11434,-5.32564 -15.43453,-12.4588 -21.29619,-21.99657 -3.69228,-7.65163 -7.68742,-13.92191 -8.85558,-13.92191 z M 259.85523,314.3436 c 0.16079,22.88909 5.38604,31.65312 24.89195,43.98486 9.59683,6.19587 25.08085,14.6132 34.41747,18.69513 9.3367,4.08194 21.21496,7.48339 26.37836,7.5576 8.99027,0.12911 9.29435,-0.41665 7.32732,-12.47737 -1.1297,-6.92687 -2.39258,-23.14428 -4.46653,-31.91832 -5.57109,-4.82946 -6.46914,-8.50861 -6.55484,-11.89225 -43.03567,-4.4264 -62.3186,-9.52325 -81.99373,-13.94965 z m -184.690357,0.50244 c -3.130253,0 -6.19024,8.45095 -7.746029,19.76283 -2.615459,19.01664 0.655609,53.44758 5.066321,53.44758 14.529719,7.42893 21.015463,9.23669 65.652795,13.46133 l 4.06143,-21.37484 c 2.2314,-11.76282 4.83157,-23.48313 5.77812,-26.04339 -14.50612,-6.64188 -42.00526,-12.64778 -72.812637,-39.25351 z m 177.028077,3.18216 -16.81098,7.95537 c -9.2358,4.36578 -22.81039,20.05621 -71.39573,24.99503 0.78743,4.17511 -4.38978,10.02286 -10.03381,5.35942 -1.50266,3.64796 -6.08297,36.78195 -4.17449,49.7855 C 137.31115,405.58589 90.032113,399.9261 72.966688,392.725 l 0.355892,24.97569 13.85911,3.39149 c 7.624763,1.86289 25.50704,4.43618 39.735,5.71533 25.74816,2.31483 25.88768,2.28525 28.03225,-6.25963 1.18509,-4.72177 1.05643,-10.34861 -0.27217,-12.49832 -4.28089,-6.92663 18.59464,0.18322 45.45033,14.13127 14.90847,7.74304 33.41895,14.3532 45.34565,16.1829 36.50912,5.60092 122.06655,-1.02961 127.53724,-9.88141 3.23528,-5.23476 -5.66053,-27.12504 -12.51924,-30.79568 -3.99524,-2.13819 -27.62714,-4.22891 -27.62714,-4.22891 -6.47698,-0.61315 -0.20436,2.71786 -30.67021,-7.45111 -34.043,30.24521 -2.31899,-1.40982 -5.24273,-3.90359 -5.31757,-2.7743 -10.26579,-5.98885 -14.7921,-9.61817 -1.46822,-1.17725 -31.31461,26.70117 -4.26966,-3.6618 -11.50907,-10.55683 -19.79487,-24.09866 -23.8118,-40.11791 l -1.88416,-10.67695 z"
       id="path2826"
       sodipodi:nodetypes="cssscccssssscccsssssssssssccccsssssscccccsssccccccccssssscccccscccsssssssssssssssscccscccssssscccsssssssssssccsssccsssccsssssccsscccsssssssssssccsssssccssssssssssssssssccssssssssssssscccssccssssssssssssssssssssccsssssssssssssssssssscccsssscccsscccsccccccccccccccccsssscccccccccccscccccssssssscccccccc" />
  </g>
</svg>
