<?xml version="1.0" encoding="utf-8"?>
<!-- Generator: Adobe Illustrator 16.0.0, SVG Export Plug-In . SVG Version: 6.00 Build 0)  -->
<!DOCTYPE svg PUBLIC "-//W3C//DTD SVG 1.1//EN" "http://www.w3.org/Graphics/SVG/1.1/DTD/svg11.dtd">
<svg version="1.1" id="Layer_1" xmlns="http://www.w3.org/2000/svg" xmlns:xlink="http://www.w3.org/1999/xlink" x="0px" y="0px"
	 width="864px" height="864px" viewBox="0 0 864 864" enable-background="new 0 0 864 864" xml:space="preserve">
<path fill-rule="evenodd" clip-rule="evenodd" d="M422.806,659.848c-10.614,3.055-19.984,5.818-29.395,8.449
	c-21.68,6.061-42.156,14.996-61.604,26.227c-17.057,9.852-33.167,21.033-46.546,35.74c-0.514,0.564-1.776,0.812-2.6,0.674
	c-11.419-1.93-22.857-3.771-34.21-6.041c-4.926-0.984-18.441-8.607-20.813-10.076c-11.716-7.242-21.705-16.254-29.564-27.607
	c-1.659-2.395-3.604-4.592-5.417-6.881c-0.302-1.07-0.454-2.213-0.926-3.201c-7.249-15.205-12.551-31.086-16.355-47.465
	c-1.428-6.148-6.748-30.547-7.068-36.904c-0.595-11.826-2.981-23.607-2.968-35.404c0.015-11.652,1.212-23.479,3.533-34.896
	c1.602-7.871,5.332-15.561,9.384-22.6c2.723-4.73,7.686-8.164,11.615-12.209c3.262-3.357,3.05-7.717-0.521-11.889
	c-2.468-2.887-6.3-3.197-9.915-0.773c-12.994,8.713-20.458,21.459-24.412,36.031c-2.774,10.223-4.49,20.906-5.178,31.48
	c-0.854,13.146-0.692,26.422,0.033,39.586c0.547,9.926,2.612,19.773,4.126,29.639c0.509,3.312,6.037,26.246,7.243,30.697
	c4.654,17.186,10.26,34.043,20.108,49.129c6.788,10.66,14.474,20.566,24.701,28.168c4.194,3.117,8.613,6.012,13.212,8.48
	c4.313,2.316,28.514,15.146,37.451,16.602c5.49,0.893,10.965,1.879,16.194,2.779c-1.99,5.375-3.944,10.561-5.83,15.77
	c-5.675,15.686-6.901,31.666-3.186,47.982c2.509,11.018,7.769,20.721,16.232,27.953c11.609,9.922,25.375,14.861,40.927,13.676
	c7.849-0.598,14.256-4.236,17.748-11.131c6.399-12.631,6.223-26.027,2.796-39.523c-1.019-4.01-3.239-7.016-7.394-7.617
	c-4.721-0.682-8.57,1.402-10.869,5.568c-2.014,3.648-3.472,7.598-5.33,11.336c-3.768,7.584-12.158,8.879-18.251,3.094
	c-3.031-2.879-4.097-6.4-4.085-10.266c0.05-16.604,7.402-30.016,18.53-41.736c11.008-11.594,24.809-18.137,39.983-22.232
	c13.072-3.527,26.117-7.158,39.209-10.611c5.612-1.48,11.313-2.629,17.511-4.051c-0.395,4.691-0.237,9.016-1.194,13.076
	c-3.429,14.547-7.256,28.998-10.884,43.498c-0.983,3.932-1.848,7.896-2.67,11.867c-1.474,7.113-2.654,14.297-4.393,21.346
	c-0.963,3.9-3.833,5.119-8.502,3.84c2.118-2.266,3.732-4.479,5.807-6.104c3.932-3.086,3.246-7.141,2.256-10.885
	c-0.971-3.664-4.42-4.867-7.959-5.24c-9.936-1.049-21.844,5.33-26.094,15.553c-4.617,11.102-1.147,26.549,5.852,33.479
	c11.066,10.957,27.441,12.393,42.124,5.617c11.024-5.088,20.551-12.148,28.112-21.848c7.192-9.229,12.355-19.26,14.335-30.877
	c0.569-3.35,1.648-6.613,2.493-9.916c2.252,1.826,3.383,3.291,4.128,4.928c4.978,10.947,9.388,22.188,14.944,32.83
	c4.858,9.305,11.837,17.109,20.139,23.824c5.301,4.289,11.424,6.045,17.523,8.219c2.291,0,4.58,0,6.871,0
	c7.204-2.115,14.398-4.49,20.034-9.613c11.396-10.357,18.651-25.561,9.076-41.865c-3.453-5.879-9.765-7.787-15.916-9.396
	c-2.946-0.77-6.082-0.805-10.256-1.307c1.497,8.205,2.854,15.654,4.215,23.123c-5.14,0.609-8.417-1.068-9.689-5.375
	c-1.974-6.682-3.952-13.428-5.036-20.285c-1.167-7.387-1.389-14.928-1.839-22.412c-0.136-2.24,0.667-4.545,0.478-6.773
	c-0.354-4.137-1.116-8.242-1.725-12.355c-0.143-0.971-0.486-1.93-0.514-2.898c-0.331-11.418-0.745-22.836-0.884-34.256
	c-0.142-11.65,0.319-23.316-0.059-34.957c-0.577-17.738-17.709-194.314-16.891-194.703c-0.359-9.152-1.241-18.199-0.938-27.207
	c0.379-11.252,2.912-22.129,7.506-32.575c5.309-12.069,13.268-21.881,23.588-29.855c2.839-2.193,5.955-3.576,9.934-3.83
	c9.4-0.602,18.779-1.871,28.102-3.3c11.497-1.762,22.994-3.635,34.371-6.031c26.042-5.486,50.938-14.394,74.506-26.748
	c15.164-7.949,29.49-17.351,42.024-29.062c9.789-9.146,19.021-18.995,25.655-30.775c4.62-8.203,9.184-16.497,8.482-26.621
	c-0.799-11.566-5.567-21.299-12.588-30.127c-3.045-3.828-6.471-7.353-9.896-11.21c7.447-5.327,11.001-13.438,14.935-21.247
	c3.324-6.6,6.664-13.21,9.558-20.002c3.827-8.985,6.972-18.264,10.876-27.212c4.96-11.366,7.81-23.296,10.062-35.374
	c1.133-6.078,1.258-12.344,1.903-18.519c0.108-1.022,0.557-2.01,0.85-3.014c0-12.596,0-25.192,0-37.789
	c-0.577-3.091-1.548-6.167-1.665-9.274c-0.504-13.572-3.475-26.677-6.771-39.769c-0.646-2.571-1.807-3.275-3.946-3.309
	c-8.523-0.134-16.951,0.869-24.981,3.678c-21.104,7.382-38.668,20.391-54.674,35.599c-16.727,15.893-32.098,33.051-45.195,52.076
	c-12.616,18.328-24.933,36.872-36.944,55.602c-2.456,3.828-4.248,4.6-8.592,3.565c-9.533-2.268-19.239-3.898-28.943-5.323
	c-10.026-1.471-20.119-2.529-30.206-3.518c-15.739-1.54-31.472-3.404-47.253-4.161c-24.34-1.167-48.652,0.438-72.908,2.515
	c-5.403,0.461-10.764,1.519-16.108,2.493c-8.993,1.639-17.947,3.479-26.935,5.15c-18.381,3.421-35.979,9.277-52.891,17.169
	c-1.983,0.925-2.825,1.073-4.101-0.801c-5.363-7.876-10.73-15.757-16.381-23.426c-3.662-4.972-7.602-9.78-11.812-14.294
	c-4.044-4.335-8.78-8.021-12.879-12.311c-5.418-5.672-9.323-12.485-15.543-17.727c-14.505-12.225-29.466-23.461-46.271-32.494
	c-17.498-9.405-35.946-15.337-55.265-19.103c-2.55-0.497-5.203-1.537-7.656-1.204c-3.915,0.53-7.702,2.002-11.94,3.187
	c0,1.686,0.372,3.62-0.06,5.354c-3.444,13.836-1.084,27.692,0.38,41.395c1.183,11.078,4.227,21.969,6.627,32.903
	c1.464,6.667,2.923,13.371,5.025,19.852c2.224,6.853,5.095,13.506,7.887,20.161c4.14,9.863,7.94,19.923,12.871,29.384
	c3.804,7.3,8.443,14.096,9.03,21.67c-2.502,3.669-5.095,6.651-6.78,10.081c-7.78,15.832-10.048,32.78-9.029,50.186
	c0.223,3.791,1.933,7.525,3.153,11.223c3.283,9.941,12.843,14.673,18.94,22.322c3.981,4.994,9.613,8.745,14.767,12.714
	c6.981,5.376,14.183,10.471,21.376,15.564c0.845,0.598,2.232,0.426,3.369,0.61c0.357,0.734,0.519,1.822,1.104,2.147
	c8.072,4.482,16.051,9.173,24.354,13.189c11.832,5.723,24.092,10.366,37.18,12.484c9.387,1.518,18.734,3.283,28.129,4.749
	c8.18,1.275,16.385,2.44,24.612,3.342c3.912,0.43,7.904,0.132,11.86,0.164c9.212,1.129,18.401,2.543,27.644,3.312
	c10.741,0.896,21.534,1.129,32.288,1.886c2.105,0.148,4.825,0.784,6.066,2.224c3.256,3.777,6.337,7.875,8.612,12.295
	c5.17,10.036,7.46,21.07,9.383,32.076c1.861,10.66,3.067,21.438,4.392,32.186 M348.206,289.377
	c-7.465-3.839-15.646-5.381-23.952-5.718c-8.036-0.326-16.18-0.801-24.12,0.128c-8.186,0.957-16.364,1.871-24.45,4.85
	c-5.822,2.145-10.878,4.702-16.307,8.866c1.107-2.941,1.927-5.119,2.665-7.082c-6.258-1.739-12.387-3.441-18.515-5.145
	c0.081-0.502,0.162-1.003,0.242-1.505c8.513-0.682,17.312,0.147,26.098-4.498c-5.08-1.51-10.662-1.769-11.155-7.398
	c-0.384-4.391,0.812-8.92,1.771-13.49c3.76,7.044,6.701,14.52,14.893,17.273c-5.754-7.326-3.744-17.042,1.286-26.102
	c-0.109,6.604,2.568,11.742,6.01,16.808c3.589,5.284,8.603,6.262,14.198,5.965c7.335-0.389,14.661-1.642,21.976-1.529
	c12.216,0.188,23.438,3.923,33.058,11.752c5.949,4.843,8.854,9.183,10.412,15.31C357.625,295.008,353.076,291.882,348.206,289.377z
	 M643.588,287.794c-5.306,1.031-5.336,0.774-2.818,5.676c0.226,0.438,0.03,1.094,0.03,2.012
	c-11.982-9.819-26.092-11.992-40.614-12.729c-3.872-0.196-7.762-0.085-11.644-0.114c-6.903,0.189-13.847,0.008-20.695,0.723
	c-3.512,0.366-6.855,2.335-10.275,3.579c-6.091-0.301-10.12,3.933-14.77,6.769c-1.604,0.978-3.021,2.261-5.319,4.011
	c3.329-9.235,8.563-15.577,16.153-19.94c8.363-4.807,17.25-8.045,27.039-7.92c5.824,0.074,11.643,0.556,17.467,0.745
	c1.068,0.035,2.155-0.454,3.232-0.701c7.823,2.574,13.043,0.889,17.817-6.581c2.849-4.456,6.092-9.139,3.707-15.029
	c0.309-0.453,0.618-0.906,1.225-1.792c3.152,9.196,8.172,17.787,1.249,27.113c5.288,0.182,11.789-7.666,14.206-16.852
	c5.761,14.306,3.525,18.879-8.698,21.325c8.33,3.956,16.609,3.894,24.66,4.893C652.604,287.157,647.815,286.973,643.588,287.794z"/>
<path fill="#8DC63F" d="M338.633,561.871c-9.024,0-18.048,0-27.072,0c-1.179-0.637-2.289-1.531-3.548-1.865
	c-4.993-1.322-10.23-1.979-14.975-3.885c-2.504-1.006-5.119-2.383-7.365-4.785c-3.158-3.381-8.23-4.883-12.122-7.689
	c-4.043-2.916-8.026-6.092-11.363-9.766c-4.438-4.889-8.215-10.377-12.298-15.588c-1.367-1.746-2.802-3.438-4.206-5.154
	c0-0.602,0-1.203,0-1.805c1.534,0.918,3.069,1.838,5.39,3.227c0.09,0.014,1.271,0.16,2.436,0.387
	c3.209,0.621,6.388,1.609,9.621,1.836c4.521,0.318,9.115-0.268,13.621,0.146c13.777,1.266,26.556-2.402,39.128-7.346
	c2.178-0.855,5.119-1.117,6.371-2.707c2.871-3.646,7.167-3.768,10.632-4.061c2.438-0.207,5.161-0.059,7.818-0.324
	c6.123-0.611,12.284-0.836,18.428-1.248c9.353-0.629,18.658-1.793,27.96,1.059c4.671,1.434,7.925,4.182,10.88,7.781
	c3.446-0.787,2.691-3.488,2.538-6.092c-0.102-1.693,0.003-3.496,0.489-5.105c0.887-2.936,2.127-5.764,2.991-8.035
	c-2.43-2.82-5.534,0.736-7.304-2.863c-0.779-1.588-3.75-2.098-5.721-3.107c-1.601-0.82-3.109-2.084-4.801-2.408
	c-7.255-1.395-14.528-3.225-21.858-3.58c-13.589-0.66-27.249,0.508-40.784-1.902c-5.261-0.934-10.626-1.283-15.942-1.904
	c-0.294-0.035-0.61-0.074-0.867-0.205c-8.742-4.498-17.386-8.867-27.267-10.963c-6.223-1.322-12.995-3.082-17.808-8.338
	c-3.307-3.613-8.216-6.363-10.115-10.543c-5.543-12.195-6.205-24.945,0.599-37.066c3.756-6.689,8.317-12.927,12.516-19.368
	c1.203,0,2.406,0,3.61,0c0.201,0.989,0.593,1.98,0.578,2.966c-0.188,12.3-0.541,24.599-0.594,36.898
	c-0.015,3.178,0.865,6.361,1.398,9.977c2.252-1.176,3.802-2.025,5.385-2.805c6.164-3.041,12.22-6.344,18.551-8.982
	c4.128-1.722,8.66-3.438,13.016-3.449c9.743-0.025,19.904-0.488,29.118,2.051c9.035,2.489,18.407,2.659,27.215,5.617
	c6.629,2.225,13.341,4.367,19.661,7.309c7.612,3.543,12.903,9.801,17.593,16.732c4.36,6.447,9.153,12.652,14.264,18.521
	c4.205,4.83,8.573,8.506,16.511,7.74c8.267-0.797,14.971-5.068,22.672-6.785c4.042-0.902,7.771-4.01,11.75-4.238
	c9.264-0.531,18.586-1.031,27.568,3.172c7.067,3.305,11.032,8.143,10.52,15.742c-3.109,1.488-6.469,2.729-9.42,4.611
	c-3.306,2.111-4.082,6.779-1.6,8.35c1.779,1.127,4.085,1.387,6.075,2.227c3.001,1.266,5.916,2.732,8.899,4.045
	c1.155,0.508,2.394,0.824,3.594,1.229c0,1.203,0,2.406,0,3.609c-4.531,5.518-9.674,9.852-17.478,9.117
	c-0.7-0.066-1.958-0.066-2.058,0.217c-2.154,6.16-8.182,3.084-12.122,4.568c-5.906,2.225-12.872,1.629-19.388,2.236
	c-0.592,0.057-1.188,0.121-1.769,0.24c-5.448,1.115-10.853,2.664-16.356,3.207c-3.108,0.307-6.355-1.291-9.58-1.58
	c-5.426-0.484-9.517-3.561-13.506-6.682c-3.627-2.834-6.857-6.18-9.687-8.773c-3.06,3.715-7.028,6.758-8.502,10.727
	c-2.425,6.531-8.417,9.119-12.537,13.674c-3.946,4.367-9.084,7.279-14.461,9.98c-9.801,4.924-19.337,10.107-30.752,9.982
	C341.421,560.037,340.023,561.236,338.633,561.871z"/>
</svg>
